<svg xmlns="http://www.w3.org/2000/svg" viewBox="0 0 520 72" width="520" height="72">
  <defs>
    <linearGradient id="px" x1="0%" y1="0%" x2="100%" y2="100%">
      <stop offset="0%" stop-color="#F2B8A2"/>
      <stop offset="45%" stop-color="#DA7756"/>
      <stop offset="100%" stop-color="#B85C38"/>
    </linearGradient>
    <linearGradient id="pxHi" x1="0%" y1="0%" x2="0%" y2="100%">
      <stop offset="0%" stop-color="#F5C9B8"/>
      <stop offset="100%" stop-color="#E8956F"/>
    </linearGradient>
    <linearGradient id="pxSh" x1="0%" y1="0%" x2="0%" y2="100%">
      <stop offset="0%" stop-color="#C96E4E"/>
      <stop offset="100%" stop-color="#9A4A2E"/>
    </linearGradient>
  </defs>

  <!-- P -->
  <g transform="translate(4,4)">
    <rect x="0" y="0" width="8" height="8" fill="url(#pxHi)"/><rect x="8" y="0" width="8" height="8" fill="url(#px)"/><rect x="16" y="0" width="8" height="8" fill="url(#px)"/><rect x="24" y="0" width="8" height="8" fill="url(#px)"/>
    <rect x="0" y="8" width="8" height="8" fill="url(#px)"/><rect x="32" y="8" width="8" height="8" fill="url(#pxSh)"/>
    <rect x="0" y="16" width="8" height="8" fill="url(#px)"/><rect x="32" y="16" width="8" height="8" fill="url(#pxSh)"/>
    <rect x="0" y="24" width="8" height="8" fill="url(#pxHi)"/><rect x="8" y="24" width="8" height="8" fill="url(#px)"/><rect x="16" y="24" width="8" height="8" fill="url(#px)"/><rect x="24" y="24" width="8" height="8" fill="url(#px)"/>
    <rect x="0" y="32" width="8" height="8" fill="url(#px)"/>
    <rect x="0" y="40" width="8" height="8" fill="url(#px)"/>
    <rect x="0" y="48" width="8" height="8" fill="url(#pxSh)"/>
  </g>

  <!-- Y -->
  <g transform="translate(52,4)">
    <rect x="0" y="0" width="8" height="8" fill="url(#px)"/><rect x="32" y="0" width="8" height="8" fill="url(#pxHi)"/>
    <rect x="0" y="8" width="8" height="8" fill="url(#pxSh)"/><rect x="32" y="8" width="8" height="8" fill="url(#px)"/>
    <rect x="8" y="16" width="8" height="8" fill="url(#px)"/><rect x="24" y="16" width="8" height="8" fill="url(#px)"/>
    <rect x="16" y="24" width="8" height="8" fill="url(#pxHi)"/>
    <rect x="16" y="32" width="8" height="8" fill="url(#px)"/>
    <rect x="16" y="40" width="8" height="8" fill="url(#px)"/>
    <rect x="16" y="48" width="8" height="8" fill="url(#pxSh)"/>
  </g>

  <!-- T -->
  <g transform="translate(100,4)">
    <rect x="0" y="0" width="8" height="8" fill="url(#pxHi)"/><rect x="8" y="0" width="8" height="8" fill="url(#px)"/><rect x="16" y="0" width="8" height="8" fill="url(#px)"/><rect x="24" y="0" width="8" height="8" fill="url(#px)"/><rect x="32" y="0" width="8" height="8" fill="url(#px)"/>
    <rect x="16" y="8" width="8" height="8" fill="url(#px)"/>
    <rect x="16" y="16" width="8" height="8" fill="url(#pxSh)"/>
    <rect x="16" y="24" width="8" height="8" fill="url(#px)"/>
    <rect x="16" y="32" width="8" height="8" fill="url(#px)"/>
    <rect x="16" y="40" width="8" height="8" fill="url(#px)"/>
    <rect x="16" y="48" width="8" height="8" fill="url(#pxSh)"/>
  </g>

  <!-- H -->
  <g transform="translate(148,4)">
    <rect x="0" y="0" width="8" height="8" fill="url(#pxHi)"/><rect x="32" y="0" width="8" height="8" fill="url(#pxHi)"/>
    <rect x="0" y="8" width="8" height="8" fill="url(#px)"/><rect x="32" y="8" width="8" height="8" fill="url(#px)"/>
    <rect x="0" y="16" width="8" height="8" fill="url(#pxSh)"/><rect x="32" y="16" width="8" height="8" fill="url(#pxSh)"/>
    <rect x="0" y="24" width="8" height="8" fill="url(#px)"/><rect x="8" y="24" width="8" height="8" fill="url(#px)"/><rect x="16" y="24" width="8" height="8" fill="url(#px)"/><rect x="24" y="24" width="8" height="8" fill="url(#px)"/><rect x="32" y="24" width="8" height="8" fill="url(#px)"/>
    <rect x="0" y="32" width="8" height="8" fill="url(#px)"/><rect x="32" y="32" width="8" height="8" fill="url(#px)"/>
    <rect x="0" y="40" width="8" height="8" fill="url(#px)"/><rect x="32" y="40" width="8" height="8" fill="url(#px)"/>
    <rect x="0" y="48" width="8" height="8" fill="url(#pxSh)"/><rect x="32" y="48" width="8" height="8" fill="url(#pxSh)"/>
  </g>

  <!-- O -->
  <g transform="translate(196,4)">
    <rect x="8" y="0" width="8" height="8" fill="url(#pxHi)"/><rect x="16" y="0" width="8" height="8" fill="url(#px)"/><rect x="24" y="0" width="8" height="8" fill="url(#px)"/>
    <rect x="0" y="8" width="8" height="8" fill="url(#px)"/><rect x="32" y="8" width="8" height="8" fill="url(#pxSh)"/>
    <rect x="0" y="16" width="8" height="8" fill="url(#pxSh)"/><rect x="32" y="16" width="8" height="8" fill="url(#px)"/>
    <rect x="0" y="24" width="8" height="8" fill="url(#px)"/><rect x="32" y="24" width="8" height="8" fill="url(#pxSh)"/>
    <rect x="0" y="32" width="8" height="8" fill="url(#px)"/><rect x="32" y="32" width="8" height="8" fill="url(#px)"/>
    <rect x="0" y="40" width="8" height="8" fill="url(#pxSh)"/><rect x="32" y="40" width="8" height="8" fill="url(#px)"/>
    <rect x="8" y="48" width="8" height="8" fill="url(#px)"/><rect x="16" y="48" width="8" height="8" fill="url(#px)"/><rect x="24" y="48" width="8" height="8" fill="url(#pxSh)"/>
  </g>

  <!-- N -->
  <g transform="translate(244,4)">
    <rect x="0" y="0" width="8" height="8" fill="url(#pxHi)"/><rect x="32" y="0" width="8" height="8" fill="url(#pxHi)"/>
    <rect x="0" y="8" width="8" height="8" fill="url(#px)"/><rect x="16" y="8" width="8" height="8" fill="url(#px)"/><rect x="32" y="8" width="8" height="8" fill="url(#px)"/>
    <rect x="0" y="16" width="8" height="8" fill="url(#pxSh)"/><rect x="24" y="16" width="8" height="8" fill="url(#px)"/><rect x="32" y="16" width="8" height="8" fill="url(#pxSh)"/>
    <rect x="0" y="24" width="8" height="8" fill="url(#px)"/><rect x="8" y="24" width="8" height="8" fill="url(#px)"/><rect x="32" y="24" width="8" height="8" fill="url(#px)"/>
    <rect x="0" y="32" width="8" height="8" fill="url(#px)"/><rect x="32" y="32" width="8" height="8" fill="url(#px)"/>
    <rect x="0" y="40" width="8" height="8" fill="url(#px)"/><rect x="32" y="40" width="8" height="8" fill="url(#px)"/>
    <rect x="0" y="48" width="8" height="8" fill="url(#pxSh)"/><rect x="32" y="48" width="8" height="8" fill="url(#pxSh)"/>
  </g>
</svg>
